{
	"asset":{
		"generator":"Khronos glTF Blender I/O v5.2.39",
		"version":"2.0"
	},
	"scene":0,
	"scenes":[
		{
			"name":"Scene",
			"nodes":[
				0
			]
		}
	],
	"nodes":[
		{
			"mesh":0,
			"name":"BodyRigged"
		}
	],
	"materials":[
		{
			"doubleSided":true,
			"name":"Material"
		},
		{
			"doubleSided":true,
			"name":"Vine",
			"pbrMetallicRoughness":{
				"baseColorFactor":[
					0.09379547089338303,
					0.8000074625015259,
					0.04758404940366745,
					1
				],
				"metallicFactor":0,
				"roughnessFactor":0.5
			}
		}
	],
	"meshes":[
		{
			"name":"Mesh",
			"primitives":[
				{
					"attributes":{
						"POSITION":0,
						"NORMAL":1,
						"TEXCOORD_0":2
					},
					"indices":3,
					"material":0
				},
				{
					"attributes":{
						"POSITION":4,
						"NORMAL":5,
						"TEXCOORD_0":6
					},
					"indices":7,
					"material":1
				},
				{
					"attributes":{
						"POSITION":8,
						"NORMAL":9,
						"TEXCOORD_0":10
					},
					"indices":11
				}
			]
		}
	],
	"accessors":[
		{
			"bufferView":0,
			"componentType":5126,
			"count":1926,
			"max":[
				2.9895272254943848,
				3.6237099170684814,
				1.1794650554656982
			],
			"min":[
				-3.007256031036377,
				-0.5049273371696472,
				-1.1794650554656982
			],
			"type":"VEC3"
		},
		{
			"bufferView":1,
			"componentType":5126,
			"count":1926,
			"type":"VEC3"
		},
		{
			"bufferView":2,
			"componentType":5126,
			"count":1926,
			"type":"VEC2"
		},
		{
			"bufferView":3,
			"componentType":5123,
			"count":11520,
			"type":"SCALAR"
		},
		{
			"bufferView":4,
			"componentType":5126,
			"count":2668,
			"max":[
				2.982750654220581,
				3.6881260871887207,
				1.2529958486557007
			],
			"min":[
				-2.8228635787963867,
				-0.4668128490447998,
				-1.2578023672103882
			],
			"type":"VEC3"
		},
		{
			"bufferView":5,
			"componentType":5126,
			"count":2668,
			"type":"VEC3"
		},
		{
			"bufferView":6,
			"componentType":5126,
			"count":2668,
			"type":"VEC2"
		},
		{
			"bufferView":7,
			"componentType":5123,
			"count":11616,
			"type":"SCALAR"
		},
		{
			"bufferView":8,
			"componentType":5126,
			"count":2056,
			"max":[
				1.3317010402679443,
				1.4376194477081299,
				0.4903995394706726
			],
			"min":[
				-1.3083044290542603,
				-0.2976189851760864,
				-0.4731765389442444
			],
			"type":"VEC3"
		},
		{
			"bufferView":9,
			"componentType":5126,
			"count":2056,
			"type":"VEC3"
		},
		{
			"bufferView":10,
			"componentType":5126,
			"count":2056,
			"type":"VEC2"
		},
		{
			"bufferView":11,
			"componentType":5123,
			"count":12288,
			"type":"SCALAR"
		}
	],
	"bufferViews":[
		{
			"buffer":0,
			"byteLength":23112,
			"byteOffset":0,
			"target":34962
		},
		{
			"buffer":0,
			"byteLength":23112,
			"byteOffset":23112,
			"target":34962
		},
		{
			"buffer":0,
			"byteLength":15408,
			"byteOffset":46224,
			"target":34962
		},
		{
			"buffer":0,
			"byteLength":23040,
			"byteOffset":61632,
			"target":34963
		},
		{
			"buffer":0,
			"byteLength":32016,
			"byteOffset":84672,
			"target":34962
		},
		{
			"buffer":0,
			"byteLength":32016,
			"byteOffset":116688,
			"target":34962
		},
		{
			"buffer":0,
			"byteLength":21344,
			"byteOffset":148704,
			"target":34962
		},
		{
			"buffer":0,
			"byteLength":23232,
			"byteOffset":170048,
			"target":34963
		},
		{
			"buffer":0,
			"byteLength":24672,
			"byteOffset":193280,
			"target":34962
		},
		{
			"buffer":0,
			"byteLength":24672,
			"byteOffset":217952,
			"target":34962
		},
		{
			"buffer":0,
			"byteLength":16448,
			"byteOffset":242624,
			"target":34962
		},
		{
			"buffer":0,
			"byteLength":24576,
			"byteOffset":259072,
			"target":34963
		}
	],
	"buffers":[
		{
			"byteLength":283648,
			"uri":"grasstank.bin"
		}
	]
}
